<svg version="1.1" viewBox="0.0 0.0 185.96850393700788 390.6955380577428" fill="none" stroke="none" stroke-linecap="square" stroke-miterlimit="10" xmlns:xlink="http://www.w3.org/1999/xlink" xmlns="http://www.w3.org/2000/svg"><clipPath id="p.0"><path d="m0 0l185.9685 0l0 390.69553l-185.9685 0l0 -390.69553z" clip-rule="nonzero"/></clipPath><g clip-path="url(#p.0)"><path fill="#000000" fill-opacity="0.0" d="m0 0l185.9685 0l0 390.69553l-185.9685 0z" fill-rule="evenodd"/><path fill="#cfe2f3" d="m51.779526 112.456696l0 0c0 -62.10812 20.284676 -112.456696 45.30709 -112.456696l0 0c12.016182 -2.1976829E-14 23.540222 11.848082 32.03695 32.9378c8.496719 21.089722 13.270142 49.693523 13.270142 79.51889l0 0c0 62.10811 -20.284683 112.456696 -45.30709 112.456696l0 0c-25.022415 0 -45.30709 -50.348587 -45.30709 -112.456696z" fill-rule="evenodd"/><path fill="#ff0000" d="m140.76903 224.91339l0 -93.85828l43.685043 93.85828z" fill-rule="evenodd"/><path fill="#ff0000" d="m51.779526 224.91339l0 -93.85828l-51.779526 93.85828z" fill-rule="evenodd"/><path fill="#cfe2f3" d="m51.779526 148.85301l43.685043 0l0 76.06038l-43.685043 0z" fill-rule="evenodd"/><path fill="#cfe2f3" d="m96.99475 132.67455l43.685043 0l0 93.85826l-43.685043 0z" fill-rule="evenodd"/><path fill="#ff0000" d="m103.374146 224.91339l0 -93.85828l14.740158 93.85828z" fill-rule="evenodd"/><path fill="#4a86e8" d="m69.57743 77.656166l0 0c0 -16.081486 13.403252 -29.118107 29.937004 -29.118107l0 0c7.939789 0 15.554382 3.067791 21.168663 8.528496c5.6142807 5.460705 8.768349 12.867008 8.768349 20.589611l0 0c0 16.08149 -13.403259 29.11811 -29.937012 29.11811l0 0c-16.533752 0 -29.937004 -13.036621 -29.937004 -29.11811z" fill-rule="evenodd"/><path fill="#ff9900" d="m56.62992 312.2861l0 0c0 -42.85208 18.113075 -77.59056 40.456696 -77.59056l0 0c10.729782 0 21.020096 8.174698 28.6072 22.725754c7.587097 14.551025 11.849487 34.2865 11.849487 54.864807l0 0c0 42.85205 -18.113075 77.590546 -40.456688 77.590546l0 0c-22.34362 0 -40.456696 -34.738495 -40.456696 -77.590546z" fill-rule="evenodd"/></g></svg>