<svg version="1.1" viewBox="0.0 0.0 185.45406824146983 225.86614173228347" fill="none" stroke="none" stroke-linecap="square" stroke-miterlimit="10" xmlns:xlink="http://www.w3.org/1999/xlink" xmlns="http://www.w3.org/2000/svg"><clipPath id="p.0"><path d="m0 0l185.45407 0l0 225.86613l-185.45407 0l0 -225.86613z" clip-rule="nonzero"/></clipPath><g clip-path="url(#p.0)"><path fill="#000000" fill-opacity="0.0" d="m0 0l185.45407 0l0 225.86613l-185.45407 0z" fill-rule="evenodd"/><path fill="#cfe2f3" d="m52.536747 112.456696l0 0c0 -62.10812 20.284672 -112.456696 45.307087 -112.456696l0 0c12.016182 -2.1976829E-14 23.540222 11.848082 32.03695 32.9378c8.496719 21.089722 13.270142 49.693523 13.270142 79.51889l0 0c0 62.10811 -20.284683 112.456696 -45.30709 112.456696l0 0c-25.022415 0 -45.307087 -50.348587 -45.307087 -112.456696z" fill-rule="evenodd"/><path fill="#ff0000" d="m141.52625 224.91339l0 -93.85828l43.685043 93.85828z" fill-rule="evenodd"/><path fill="#ff0000" d="m52.536747 224.91339l0 -93.85828l-51.77953 93.85828z" fill-rule="evenodd"/><path fill="#cfe2f3" d="m52.536747 148.85301l43.68504 0l0 76.06038l-43.68504 0z" fill-rule="evenodd"/><path fill="#cfe2f3" d="m97.75197 132.67455l43.685043 0l0 93.85826l-43.685043 0z" fill-rule="evenodd"/><path fill="#ff0000" d="m104.13136 224.91339l0 -93.85828l14.740158 93.85828z" fill-rule="evenodd"/><path fill="#4a86e8" d="m70.33465 77.656166l0 0c0 -16.081486 13.403252 -29.118107 29.937004 -29.118107l0 0c7.939789 0 15.554382 3.067791 21.168663 8.528496c5.6142807 5.460705 8.768349 12.867008 8.768349 20.589611l0 0c0 16.08149 -13.403259 29.11811 -29.937012 29.11811l0 0c-16.533752 0 -29.937004 -13.036621 -29.937004 -29.11811z" fill-rule="evenodd"/></g></svg>